<svg width="450" height="450" viewBox="0 0 450 450" fill="none" xmlns="http://www.w3.org/2000/svg">
<g clip-path="url(#clip0_1145_1615)">
<path d="M0.679401 187.076C2.52411 128.925 3.44646 99.8491 17.5772 72.968C29.0042 51.2303 51.2783 28.9602 73.018 17.5371C99.9017 3.41112 128.96 2.49451 187.078 0.661284C200.32 0.243561 213.131 -5.96904e-09 225 0C236.87 5.96899e-09 249.68 0.243556 262.923 0.661272C321.04 2.49449 350.099 3.41109 376.982 17.5371C398.722 28.9602 420.996 51.2303 432.423 72.968C446.554 99.8492 447.476 128.925 449.321 187.077C449.758 200.851 450.01 214.179 450 226.5C449.991 237.933 449.755 250.245 449.356 262.975C447.532 321.065 446.621 350.11 432.494 377C421.074 398.736 398.786 421.029 377.052 432.452C350.165 446.584 321.101 447.502 262.974 449.337C249.713 449.756 236.885 450 225 450C213.116 450 200.287 449.756 187.026 449.337C128.899 447.502 99.8358 446.584 72.9483 432.452C51.2145 421.029 28.9262 398.736 17.5068 377C3.37967 350.11 2.46799 321.065 0.644631 262.976C0.245045 250.245 0.00931648 237.933 0.000272759 226.5C-0.00947358 214.179 0.242452 200.85 0.679401 187.076Z" fill="url(#paint0_radial_1145_1615)"/>
<path d="M347.964 210.472C350.376 209.408 352.423 207.66 353.851 205.443C355.279 203.227 356.026 200.641 355.999 198.005C355.972 195.368 355.172 192.798 353.698 190.612C352.224 188.425 350.141 186.72 347.707 185.706L232.215 133.1C228.704 131.499 224.89 130.67 221.031 130.67C217.172 130.67 213.358 131.499 209.847 133.1L94.3688 185.652C91.9698 186.702 89.9291 188.429 88.496 190.621C87.063 192.813 86.2998 195.376 86.2998 197.995C86.2998 200.614 87.063 203.176 88.496 205.368C89.9291 207.56 91.9698 209.287 94.3688 210.337L209.847 262.997C213.358 264.598 217.172 265.427 221.031 265.427C224.89 265.427 228.704 264.598 232.215 262.997L347.964 210.472Z" stroke="white" stroke-width="24" stroke-linecap="round" stroke-linejoin="round"/>
<path d="M355.778 198.049V278.897" stroke="white" stroke-width="24" stroke-linecap="round" stroke-linejoin="round"/>
<path d="M140.183 231.734V278.896C140.183 289.617 148.701 299.899 163.863 307.48C179.025 315.061 199.589 319.32 221.031 319.32C242.473 319.32 263.038 315.061 278.2 307.48C293.362 299.899 301.88 289.617 301.88 278.896V231.734" stroke="white" stroke-width="24" stroke-linecap="round" stroke-linejoin="round"/>
</g>
<defs>
<radialGradient id="paint0_radial_1145_1615" cx="0" cy="0" r="1" gradientUnits="userSpaceOnUse" gradientTransform="translate(-44.5 -44.5) rotate(45) scale(682.358 682.358)">
<stop offset="0.116667" stop-color="#40BEFE"/>
<stop offset="0.896667" stop-color="#05144B"/>
</radialGradient>
<clipPath id="clip0_1145_1615">
<rect width="450" height="450" fill="white"/>
</clipPath>
</defs>
</svg>
